<?xml version="1.0" encoding="UTF-8"?>
<!DOCTYPE svg PUBLIC "-//W3C//DTD SVG 1.1//EN" "http://www.w3.org/Graphics/SVG/1.1/DTD/svg11.dtd">
<!-- Creator: CorelDRAW -->
<svg xmlns="http://www.w3.org/2000/svg" xml:space="preserve" width="6.82666in" height="6.82666in" style="shape-rendering:geometricPrecision; text-rendering:geometricPrecision; image-rendering:optimizeQuality; fill-rule:evenodd; clip-rule:evenodd"
viewBox="0 0 6.82666 6.82666"
 xmlns:xlink="http://www.w3.org/1999/xlink">
 <defs>
  <style type="text/css">
   <![CDATA[
    .fil12 {fill:none}
    .fil8 {fill:#515151}
    .fil11 {fill:#6E6E6E}
    .fil6 {fill:#707070}
    .fil4 {fill:#767676}
    .fil1 {fill:#8B8C8C}
    .fil9 {fill:#8E8E8F}
    .fil0 {fill:#CFCFCF}
    .fil5 {fill:#414141;fill-rule:nonzero}
    .fil7 {fill:#515151;fill-rule:nonzero}
    .fil10 {fill:#6E6E6E;fill-rule:nonzero}
    .fil2 {fill:#767676;fill-rule:nonzero}
    .fil3 {fill:#E2E2E3;fill-rule:nonzero}
   ]]>
  </style>
 </defs>
 <g id="Layer_x0020_1">
  <metadata id="CorelCorpID_0Corel-Layer"/>
  <g id="_573465176">
   <g>
    <polygon id="_573468728" class="fil0" points="3.18165,2.84226 3.72219,2.84226 3.79316,3.46249 3.11069,3.46249 "/>
    <path id="_573467696" class="fil1" d="M3.45149 4.16035l-0.549642 0c-0.159169,0 -0.406114,0 -0.565283,0 -0.0214882,-0.596488 0.19428,-0.97572 0.80489,-1.03139l0.000141732 -3.93701e-006 3.93701e-006 3.93701e-006 0.000413386 -3.93701e-006c0.0895354,0.0812244 0.195665,0.130283 0.309476,0.130469 0.113807,-0.000185039 0.219937,-0.0492441 0.309472,-0.130469l0.000413386 3.93701e-006 3.93701e-006 -3.93701e-006 0.000141732 3.93701e-006c0.61061,0.0556732 0.826378,0.434906 0.80489,1.03139 -0.159169,0 -0.406114,0 -0.565283,0l-0.549638 0z"/>
    <path id="_573467648" class="fil2" d="M3.14152 3.12895c0.00457874,0.00399606 0.00918504,0.00790945 0.0138189,0.0117402 0.0866654,0.074185 0.187933,0.118551 0.29615,0.118724 0.108213,-0.000173228 0.20948,-0.0445394 0.296146,-0.118724 0.00463386,-0.00383071 0.00924016,-0.00774409 0.0138189,-0.0117402l6.69291e-005 0c0.0245945,0.00188976 0.0583071,0.0066811 0.0740748,0.0086063 -0.00015748,0.00015748 -0.00270866,0.00270472 -0.0028622,0.0028622 -0.055063,0.0550197 -0.115035,0.0993583 -0.178874,0.129933 -0.064189,0.0307402 -0.132087,0.047563 -0.20237,0.0476693 -0.0702874,-0.000106299 -0.138185,-0.0169291 -0.202374,-0.0476693 -0.0638346,-0.0305748 -0.123811,-0.0749134 -0.178874,-0.129933 -0.000153543,-0.00015748 -0.00270472,-0.00270472 -0.0028622,-0.0028622 0.0157677,-0.0019252 0.0494803,-0.00671654 0.0740748,-0.0086063l6.69291e-005 0z"/>
    <path id="_573468200" class="fil3" d="M2.77431 2.10043c-0.0241339,0.0090315 -0.0444764,0.0256102 -0.0588386,0.0492323 -0.0130039,0.021374 -0.0205315,0.0481929 -0.0202677,0.0795748 0.00053937,0.064185 0.0372126,0.158673 0.140874,0.27152 0.0440039,0.16226 0.125445,0.30885 0.230811,0.414638 0.10763,0.108055 0.240236,0.174417 0.384823,0.174417 0.153142,0 0.29289,-0.0745748 0.403693,-0.194287 0.10678,-0.115362 0.186705,-0.27348 0.224394,-0.445756 0.0857165,-0.0732362 0.120539,-0.162878 0.121524,-0.232185 0.000401575,-0.0282874 -0.00451575,-0.0541811 -0.0138268,-0.0758504 -0.0115906,-0.0269685 -0.0299646,-0.0484606 -0.0539449,-0.0622402 -0.341894,-0.355854 -0.392496,-1.04359 -1.35924,0.020937z"/>
    <path id="_573467768" class="fil4" d="M2.71837 3.75292c0,0 -0.0656614,0.205772 -0.0645157,0.407425l0.0863583 0c-0.038752,-0.182787 -0.0218425,-0.407425 -0.0218425,-0.407425z"/>
    <path id="_573467192" class="fil5" d="M2.76886 2.03258c-0.00680709,-0.160736 0.0290079,-0.38311 0.272795,-0.409508 0.0550748,-0.378059 0.680043,-0.245969 0.903563,-0.0595079 0.178673,0.149051 0.222232,0.371236 0.158256,0.641921 -0.142098,-0.278043 -0.425654,-0.50998 -0.76187,-0.413831 -0.169957,0.0486024 -0.126606,0.0860079 -0.155894,0.184717 -0.0787087,0.0244567 -0.186268,0.013122 -0.279409,0.0729409 -0.0679291,0.0436299 -0.0281378,0.122906 -0.063315,0.203209 -0.0589055,-0.0997165 -0.0634961,-0.137642 -0.074126,-0.219941z"/>
    <path id="_573467528" class="fil4" d="M4.18461 3.75292c0,0 0.0656614,0.205772 0.0645157,0.407425l-0.0863583 0c0.038752,-0.182787 0.0218425,-0.407425 0.0218425,-0.407425z"/>
   </g>
   <polygon id="_573467120" class="fil0" points="4.42942,3.97787 5.03146,3.97787 5.11049,4.66866 4.35039,4.66866 "/>
   <path id="_573466928" class="fil6" d="M4.72996 5.44591l-0.612169 0c-0.17728,0 -0.452319,0 -0.629594,0 -0.0239331,-0.66435 0.216382,-1.08673 0.896457,-1.14873l0.00015748 -3.93701e-006 3.93701e-006 3.93701e-006 0.000464567 -3.93701e-006c0.0997165,0.0904646 0.217921,0.145106 0.344681,0.145311 0.126756,-0.000204724 0.244961,-0.0548465 0.344677,-0.145311l0.000464567 3.93701e-006 3.93701e-006 -3.93701e-006 0.00015748 3.93701e-006c0.680079,0.0620039 0.920394,0.484382 0.896461,1.14873 -0.17728,0 -0.452319,0 -0.629594,0l-0.612169 0z"/>
   <path id="_573466376" class="fil7" d="M4.38473 4.29717c0.00509449,0.00445276 0.0102244,0.00880709 0.0153898,0.0130748 0.0965236,0.082626 0.209311,0.132039 0.329839,0.132232 0.120524,-0.000192913 0.233311,-0.0496063 0.329835,-0.132232 0.00516535,-0.00426772 0.0102953,-0.00862205 0.0153937,-0.0130748l7.48031e-005 0c0.0273937,0.00210236 0.0649409,0.00744094 0.0825,0.00958661 -0.000169291,0.000173228 -0.00301181,0.00301181 -0.00318504,0.00318504 -0.0613268,0.0612795 -0.128126,0.110665 -0.199224,0.144717 -0.0714921,0.0342362 -0.147114,0.0529764 -0.225394,0.0530945 -0.0782795,-0.00011811 -0.153902,-0.0188583 -0.225394,-0.0530945 -0.0711024,-0.0340512 -0.137898,-0.083437 -0.199228,-0.144717 -0.000169291,-0.000173228 -0.00301181,-0.00301181 -0.00318504,-0.00318504 0.0175591,-0.00214567 0.0551102,-0.00748425 0.0825,-0.00958661l7.87402e-005 0z"/>
   <path id="_573466472" class="fil3" d="M3.97574 3.15163c-0.026878,0.010063 -0.0495354,0.0285276 -0.0655315,0.0548346 -0.0144843,0.0238071 -0.0228661,0.0536772 -0.0225748,0.0886299 0.000602362,0.0714882 0.0414488,0.17672 0.156902,0.302409 0.0490079,0.18072 0.139717,0.343984 0.257071,0.461803 0.119874,0.12035 0.267563,0.194264 0.428602,0.194264 0.170563,0 0.326209,-0.0830591 0.449618,-0.21639 0.118925,-0.128488 0.207945,-0.304594 0.249921,-0.496469 0.0954685,-0.0815669 0.134252,-0.181406 0.13535,-0.258598 0.000448819,-0.0315039 -0.0050315,-0.0603465 -0.0154016,-0.0844803 -0.0129094,-0.0300354 -0.0333701,-0.0539724 -0.0600827,-0.0693189 -0.380787,-0.396343 -0.43715,-1.16232 -1.51387,0.023315z"/>
   <path id="_573466136" class="fil8" d="M3.91343 4.99213c0,0 -0.0731299,0.229181 -0.0718543,0.453776l0.096185 0c-0.0431614,-0.203587 -0.0243307,-0.453776 -0.0243307,-0.453776z"/>
   <path id="_573466616" class="fil5" d="M3.96967 3.07607c-0.00758268,-0.17902 0.0323071,-0.426693 0.303827,-0.456094 0.0613425,-0.421071 0.757409,-0.273953 1.00636,-0.0662756 0.199,0.166004 0.247516,0.413465 0.17626,0.714945 -0.15826,-0.309677 -0.474079,-0.568 -0.848543,-0.460909 -0.189291,0.0541339 -0.141012,0.0957913 -0.17363,0.205728 -0.0876614,0.0272402 -0.207461,0.0146181 -0.311193,0.0812402 -0.0756575,0.0485945 -0.0313425,0.13689 -0.0705197,0.226331 -0.0656102,-0.111063 -0.0707205,-0.153303 -0.0825591,-0.244965z"/>
   <path id="_573465680" class="fil8" d="M5.54648 4.99213c0,0 0.0731299,0.229181 0.0718583,0.453776l-0.096189 0c0.0431614,-0.203587 0.0243307,-0.453776 0.0243307,-0.453776z"/>
   <polygon id="_573465992" class="fil0" points="1.79617,3.97787 2.39821,3.97787 2.47724,4.66866 1.71714,4.66866 "/>
   <path id="_573465464" class="fil9" d="M2.09671 5.44591l-0.612169 0c-0.17728,0 -0.452319,0 -0.629594,0 -0.0239331,-0.66435 0.216382,-1.08673 0.896457,-1.14873l0.00015748 -3.93701e-006 3.93701e-006 3.93701e-006 0.000464567 -3.93701e-006c0.0997165,0.0904646 0.217921,0.145106 0.344681,0.145311 0.126756,-0.000204724 0.244961,-0.0548465 0.344677,-0.145311l0.000464567 3.93701e-006 3.93701e-006 -3.93701e-006 0.00015748 3.93701e-006c0.680079,0.0620039 0.920394,0.484382 0.896461,1.14873 -0.17728,0 -0.452319,0 -0.629598,0l-0.612165 0z"/>
   <path id="_573465656" class="fil10" d="M1.75148 4.29717c0.00509449,0.00445276 0.0102244,0.00880709 0.0153898,0.0130748 0.0965236,0.082626 0.209311,0.132039 0.329839,0.132232 0.120524,-0.000192913 0.233311,-0.0496063 0.329835,-0.132232 0.00516535,-0.00426772 0.0102953,-0.00862205 0.0153937,-0.0130748l7.48031e-005 0c0.0273937,0.00210236 0.0649409,0.00744094 0.0825,0.00958661 -0.000173228,0.000173228 -0.00301181,0.00301181 -0.00318504,0.00318504 -0.0613268,0.0612795 -0.128126,0.110665 -0.199224,0.144717 -0.0714921,0.0342362 -0.147114,0.0529764 -0.225394,0.0530945 -0.0782795,-0.00011811 -0.153902,-0.0188583 -0.225394,-0.0530945 -0.0711024,-0.0340512 -0.137898,-0.083437 -0.199228,-0.144717 -0.000169291,-0.000173228 -0.00301181,-0.00301181 -0.00318504,-0.00318504 0.0175591,-0.00214567 0.0551102,-0.00748425 0.0825,-0.00958661l7.87402e-005 0z"/>
   <path id="_573465272" class="fil3" d="M1.34249 3.15163c-0.026878,0.010063 -0.0495354,0.0285276 -0.0655354,0.0548346 -0.0144803,0.0238071 -0.0228622,0.0536772 -0.0225709,0.0886299 0.000602362,0.0714882 0.0414488,0.17672 0.156902,0.302409 0.0490079,0.18072 0.139717,0.343984 0.257071,0.461803 0.119874,0.12035 0.267563,0.194264 0.428602,0.194264 0.170563,0 0.326209,-0.0830591 0.449618,-0.21639 0.118925,-0.128488 0.207945,-0.304594 0.249921,-0.496469 0.0954685,-0.0815669 0.134252,-0.181406 0.13535,-0.258598 0.000448819,-0.0315039 -0.0050315,-0.0603465 -0.0154016,-0.0844803 -0.0129094,-0.0300354 -0.033374,-0.0539724 -0.0600827,-0.0693189 -0.380787,-0.396343 -0.43715,-1.16232 -1.51387,0.023315z"/>
   <path id="_573465032" class="fil11" d="M1.28018 4.99213c0,0 -0.0731299,0.229181 -0.0718543,0.453776l0.096185 0c-0.0431614,-0.203587 -0.0243307,-0.453776 -0.0243307,-0.453776z"/>
   <path id="_573464960" class="fil5" d="M1.33642 3.07607c-0.00758268,-0.17902 0.0323071,-0.426693 0.303827,-0.456094 0.0613425,-0.421071 0.757409,-0.273953 1.00636,-0.0662756 0.199,0.166004 0.247516,0.413465 0.17626,0.714945 -0.15826,-0.309677 -0.474079,-0.568 -0.848543,-0.460909 -0.189291,0.0541339 -0.141012,0.0957913 -0.17363,0.205728 -0.0876614,0.0272402 -0.207461,0.0146181 -0.311197,0.0812402 -0.0756535,0.0485945 -0.0313386,0.13689 -0.0705157,0.226331 -0.0656102,-0.111063 -0.0707205,-0.153303 -0.0825591,-0.244965z"/>
   <path id="_573464840" class="fil11" d="M2.91324 4.99213c0,0 0.0731299,0.229181 0.0718543,0.453776l-0.096185 0c0.0431614,-0.203587 0.0243307,-0.453776 0.0243307,-0.453776z"/>
  </g>
 </g>
 <rect class="fil12" width="6.82666" height="6.82666"/>
</svg>
